<svg width="252" height="39" viewBox="0 0 252 39" fill="none" xmlns="http://www.w3.org/2000/svg">
<path d="M57.2555 9.2935H37.4064V8.39618C37.4064 7.5148 36.9495 6.70244 36.2019 6.26175L34.6131 5.32196V2.77338C34.5924 2.10969 34.0628 1.57874 33.4086 1.57874C32.7544 1.57874 32.204 2.13093 32.204 2.81055V3.899L30.3609 2.81055C29.6132 2.36986 28.6994 2.36986 27.9518 2.81055L26.3474 3.76096V2.77338C26.3267 2.10969 25.7971 1.57874 25.1429 1.57874C24.4887 1.57874 23.9383 2.13093 23.9383 2.81055V5.18391L22.1107 6.26175L22.0329 6.30953C21.3319 6.76085 20.9062 7.54666 20.9062 8.40149V9.2988H1.20767C0.0498535 9.2988 -0.443388 10.8067 0.485983 11.5182L13.9956 21.8771C14.3487 22.1479 14.816 22.201 15.2157 22.0098L20.901 19.3551V31.0838C20.901 31.9652 21.3579 32.7776 22.1056 33.2183L27.9466 36.6695C28.6942 37.1102 29.608 37.1102 30.3557 36.6695L36.1967 33.2183L36.2746 33.1705C36.9755 32.7192 37.4012 31.9334 37.4012 31.0785V19.2754L43.2423 22.0045C43.642 22.1904 44.1093 22.1426 44.4624 21.8718L57.972 11.5129C58.9014 10.8014 58.4082 9.2935 57.2503 9.2935H57.2555ZM23.3153 8.39618L29.1563 4.94498L34.9973 8.39618V9.2935H29.3121C29.2861 9.2935 29.2602 9.2988 29.2342 9.30411C29.2082 9.30411 29.1823 9.2935 29.1563 9.2935H23.3153V8.39618ZM34.9973 23.7301L29.1719 27.176L23.3153 23.7142V20.2311L28.5696 23.3372L28.6112 23.3585C28.9746 23.5549 29.4159 23.5496 29.7742 23.3372L34.9973 20.2471V23.7301ZM29.1719 20.8417L24.1149 17.8525L29.2342 15.4632L34.286 17.8206L29.1719 20.8417V20.8417ZM14.8731 19.456L4.82651 11.7624H27.9518V13.3553L14.8731 19.4666V19.456ZM29.1563 34.5297L23.3153 31.0785V26.5548L28.5696 29.6609L28.6112 29.6821C28.9746 29.8786 29.4159 29.8733 29.7742 29.6609L34.9973 26.5707V31.0732L29.1563 34.5244V34.5297ZM43.5953 19.456L30.5166 13.3447V11.7518H53.6367L43.5953 19.4506V19.456Z" fill="white"/>
<path d="M63.7871 6.14493L67.4059 6.12901L67.4215 9.85099L69.2647 9.83506L69.2283 1.21768H67.3644L67.38 4.44057L63.7767 4.4565L63.7612 1.23361L61.8972 1.24954L61.9336 9.88816L63.7975 9.87223L63.7819 6.15024L63.7871 6.14493Z" fill="white"/>
<path d="M73.7869 9.87223H75.6509L75.6145 6.1821L78.7557 1.21768L76.5595 1.23361L74.68 4.47243L72.8679 1.24954H70.5679L73.7662 6.19803L73.7817 9.86692L73.7869 9.87223Z" fill="white"/>
<path d="M81.9748 9.85101L81.9592 6.48476H83.3143C83.7557 6.48476 84.1762 6.43167 84.5604 6.3414C84.9446 6.25114 85.2613 6.10778 85.5469 5.91133C85.8273 5.71488 86.0402 5.42816 86.1959 5.08304C86.3517 4.74323 86.4244 4.30785 86.4244 3.80344C86.4244 3.29904 86.3361 2.86897 86.1596 2.52385C85.983 2.18404 85.7546 1.92918 85.4586 1.7168C85.1575 1.52034 84.8252 1.37699 84.441 1.30265C84.0568 1.22832 83.6311 1.17522 83.1949 1.19646L80.0693 1.21239L80.1213 9.85101H81.9852H81.9748ZM82.8886 2.8318C83.0651 2.8318 83.2417 2.8318 83.4338 2.84773C83.6259 2.86366 83.8024 2.92206 83.9634 2.99108C84.1191 3.06542 84.2437 3.17161 84.3476 3.29904C84.4514 3.42647 84.5033 3.60699 84.5033 3.81937C84.5033 4.01583 84.467 4.19635 84.3995 4.32378C84.332 4.45121 84.2229 4.5574 84.0983 4.64766C83.9737 4.72199 83.8335 4.77509 83.6778 4.80695C83.522 4.84411 83.3611 4.86004 83.2053 4.86004H81.9592L81.9437 2.81056L82.8938 2.82649L82.8886 2.8318Z" fill="white"/>
<path d="M93.6932 9.85099V8.08823L89.5967 8.10415V6.35732L93.2519 6.34139L93.2363 4.57862L89.5812 4.59455V2.99638L93.4492 2.95921V1.21768L87.7017 1.25485L87.7536 9.87223L93.6932 9.8563V9.85099Z" fill="white"/>
<path d="M99.5601 9.85099L101.793 9.83506L99.6328 6.19803C100.23 6.0706 100.687 5.79981 100.988 5.39098C101.305 4.96091 101.445 4.43526 101.445 3.82467C101.445 3.32026 101.357 2.90612 101.18 2.5663C101.003 2.22649 100.775 1.95571 100.479 1.75925C100.178 1.5628 99.8456 1.41944 99.4614 1.34511C99.0772 1.25485 98.6722 1.21768 98.2465 1.21768L94.9807 1.23361L95.0171 9.87223L96.881 9.8563L96.8654 6.39979H97.7792L99.5705 9.8563L99.5601 9.85099ZM96.855 4.79631L96.8395 2.83709H98.0544C98.2309 2.83709 98.3867 2.85302 98.5632 2.87426C98.7397 2.89019 98.8955 2.94859 99.0357 3.01762C99.1759 3.08664 99.2797 3.1769 99.368 3.32557C99.4562 3.453 99.5081 3.63352 99.5081 3.8459C99.5081 4.07952 99.4562 4.26005 99.368 4.40341C99.2641 4.53083 99.1395 4.63702 98.9993 4.69012C98.8436 4.74322 98.6826 4.78038 98.4905 4.79631C98.2984 4.81224 98.1219 4.81224 97.9609 4.81224L96.855 4.79631V4.79631Z" fill="white"/>
<path d="M108.381 9.83506V8.0723L104.939 8.08823L104.903 1.21237L103.039 1.2283L103.091 9.84568L108.381 9.82975V9.83506Z" fill="white"/>
<path d="M115.676 9.83506L115.661 8.08823L111.585 8.10415L111.569 6.34139L115.224 6.32546V4.57862L111.569 4.59455L111.554 2.97514L115.416 2.95921V1.21768L109.69 1.23361L109.726 9.87223L115.681 9.83506H115.676Z" fill="white"/>
<path d="M123.355 8.73599C123.796 8.37494 124.129 7.92894 124.393 7.38737C124.658 6.84579 124.778 6.2352 124.762 5.53434C124.762 4.74322 124.622 4.07952 124.357 3.51671C124.092 2.95921 123.724 2.52914 123.267 2.16809C122.81 1.82828 122.285 1.57342 121.668 1.43006C121.05 1.28671 120.422 1.21237 119.736 1.21237L116.943 1.2283L116.995 9.86692L120.032 9.85099C120.666 9.85099 121.263 9.7448 121.823 9.56428C122.405 9.36782 122.914 9.09704 123.35 8.73599H123.355ZM119.824 8.08823H118.859L118.822 2.95921H119.913C120.302 2.95921 120.671 3.01231 121.019 3.10257C121.372 3.19283 121.688 3.35212 121.948 3.55388C122.213 3.75033 122.42 4.00519 122.581 4.32907C122.737 4.63702 122.81 5.014 122.825 5.42815C122.825 5.91131 122.753 6.32546 122.597 6.67058C122.441 7.01039 122.228 7.28117 121.964 7.49887C121.699 7.71656 121.382 7.85991 121.013 7.95018C120.645 8.05637 120.24 8.09353 119.819 8.09353L119.824 8.08823Z" fill="white"/>
<path d="M130.837 4.74324V6.506H132.348V7.90772C132.171 7.99798 131.943 8.10417 131.647 8.19444C131.346 8.2847 130.998 8.33779 130.593 8.33779C130.188 8.33779 129.835 8.26346 129.523 8.14134C129.206 7.99798 128.926 7.81746 128.698 7.56791C128.469 7.31836 128.293 7.02634 128.168 6.68653C128.043 6.34672 127.976 5.98567 127.976 5.57152C127.976 5.15738 128.028 4.79633 128.152 4.45652C128.277 4.11671 128.448 3.82469 128.682 3.57514C128.911 3.32559 129.191 3.12383 129.508 3.00171C129.824 2.85835 130.193 2.78402 130.577 2.78402C131.05 2.78402 131.455 2.85835 131.771 2.98047C132.088 3.12383 132.368 3.32028 132.633 3.59107L133.931 2.11501C133.49 1.7168 133.002 1.43008 132.436 1.2708C131.875 1.11151 131.242 1.02125 130.572 1.03718C129.902 1.03718 129.305 1.14337 128.744 1.36106C128.184 1.57875 127.706 1.88139 127.301 2.27961C126.896 2.67783 126.579 3.16099 126.351 3.7185C126.122 4.276 126.019 4.90783 126.019 5.58745C126.019 6.26707 126.143 6.89891 126.372 7.45641C126.6 8.01391 126.917 8.50239 127.322 8.87937C127.727 9.27758 128.22 9.5643 128.765 9.77668C129.326 9.99437 129.923 10.0846 130.593 10.0846C131.205 10.0846 131.823 10.0103 132.42 9.88818C133.017 9.76075 133.578 9.54837 134.123 9.24042L134.139 4.722L130.837 4.73793V4.74324Z" fill="white"/>
<path d="M141.434 9.63862V7.89178L137.337 7.90771V6.14494L140.992 6.12901L140.977 4.38218L137.322 4.3981V2.7787L141.19 2.76277V1L135.442 1.03717L135.494 9.67579L141.434 9.63862V9.63862Z" fill="white"/>
<path d="M144.632 9.65455L144.616 6.19804H145.53L147.306 9.63331L149.538 9.61738L147.379 5.98035C147.976 5.85292 148.433 5.58213 148.734 5.1733C149.03 4.74322 149.191 4.21758 149.191 3.60698C149.191 3.10258 149.102 2.68843 148.926 2.34862C148.749 2.00881 148.521 1.73803 148.225 1.54157C147.924 1.34512 147.591 1.20176 147.207 1.12743C146.823 1.03717 146.418 1 145.977 1L142.711 1.01593L142.747 9.65455H144.648H144.632ZM145.811 2.61941C145.987 2.61941 146.143 2.63534 146.319 2.65658C146.496 2.6725 146.652 2.73091 146.776 2.79993C146.916 2.87427 147.02 2.95922 147.109 3.10789C147.197 3.23532 147.249 3.41584 147.249 3.62822C147.249 3.86184 147.197 4.04237 147.109 4.18572C147.005 4.31315 146.88 4.41934 146.74 4.47244C146.584 4.54677 146.423 4.57863 146.231 4.57863C146.039 4.59456 145.862 4.59456 145.702 4.59456H144.611L144.596 2.63534L145.811 2.61941V2.61941Z" fill="white"/>
<path d="M64.3219 33.7758V26.2469H72.1307V24.0328H64.3219V18.5693H72.707V16.3552H62.0166V33.7758H64.3219ZM78.2884 33.7758V16.3605H75.9831V33.7758H78.2884ZM85.1418 33.7758V26.0982H87.7119L92.0368 33.7758H94.9184L90.0898 25.8274C90.7285 25.7637 91.31 25.5832 91.8292 25.2965C92.3484 25.0097 92.7897 24.6593 93.1479 24.2399C93.5062 23.8204 93.7866 23.3532 93.9787 22.8381C94.1708 22.3231 94.2694 21.7869 94.2694 21.2293C94.2694 20.6718 94.1915 20.125 94.0306 19.5462C93.8696 18.9622 93.5841 18.4418 93.1791 17.9693C92.7689 17.5021 92.2134 17.1145 91.5073 16.8118C90.8012 16.5092 89.9081 16.3552 88.8178 16.3552H82.8366V33.7758H85.1418V33.7758ZM88.1688 24.0328H85.1418V18.4259H88.1688C88.6153 18.4259 89.0618 18.4631 89.5032 18.5374C89.9445 18.6117 90.3339 18.7445 90.6817 18.9409C91.0244 19.1374 91.3048 19.4188 91.5125 19.7905C91.7201 20.1568 91.824 20.64 91.824 21.2293C91.824 21.8187 91.7201 22.3019 91.5125 22.6682C91.3048 23.0346 91.0296 23.3213 90.6817 23.5178C90.3339 23.7142 89.9445 23.8523 89.5032 23.9213C89.0618 23.9956 88.6205 24.0328 88.1688 24.0328ZM109.098 33.7758V31.5617H99.991V25.9761H108.065V23.762H99.991V18.5693H108.662V16.3552H97.6858V33.7758H109.098V33.7758ZM114.845 33.7758V26.2469H122.654V24.0328H114.845V18.5693H123.23V16.3552H112.54V33.7758H114.845ZM136.616 33.7758V31.5617H128.807V16.3605H126.501V33.7758H136.616ZM142.799 33.7758V26.3477L149.237 16.3605H146.428L141.647 24.0115L137.01 16.3605H134.056L140.494 26.3477V33.7758H142.799V33.7758Z" fill="white"/>
<line x1="166.5" y1="-2.18557e-08" x2="166.5" y2="39" stroke="#4B5055"/>
<path d="M184.96 25.112C184.181 25.112 183.477 24.9787 182.848 24.712C182.229 24.4453 181.739 24.0613 181.376 23.56C181.013 23.0587 180.827 22.4667 180.816 21.784H183.216C183.248 22.2427 183.408 22.6053 183.696 22.872C183.995 23.1387 184.4 23.272 184.912 23.272C185.435 23.272 185.845 23.1493 186.144 22.904C186.443 22.648 186.592 22.3173 186.592 21.912C186.592 21.5813 186.491 21.3093 186.288 21.096C186.085 20.8827 185.829 20.7173 185.52 20.6C185.221 20.472 184.805 20.3333 184.272 20.184C183.547 19.9707 182.955 19.7627 182.496 19.56C182.048 19.3467 181.659 19.032 181.328 18.616C181.008 18.1893 180.848 17.624 180.848 16.92C180.848 16.2587 181.013 15.6827 181.344 15.192C181.675 14.7013 182.139 14.328 182.736 14.072C183.333 13.8053 184.016 13.672 184.784 13.672C185.936 13.672 186.869 13.9547 187.584 14.52C188.309 15.0747 188.709 15.8533 188.784 16.856H186.32C186.299 16.472 186.133 16.1573 185.824 15.912C185.525 15.656 185.125 15.528 184.624 15.528C184.187 15.528 183.835 15.64 183.568 15.864C183.312 16.088 183.184 16.4133 183.184 16.84C183.184 17.1387 183.28 17.3893 183.472 17.592C183.675 17.784 183.92 17.944 184.208 18.072C184.507 18.1893 184.923 18.328 185.456 18.488C186.181 18.7013 186.773 18.9147 187.232 19.128C187.691 19.3413 188.085 19.6613 188.416 20.088C188.747 20.5147 188.912 21.0747 188.912 21.768C188.912 22.3653 188.757 22.92 188.448 23.432C188.139 23.944 187.685 24.3547 187.088 24.664C186.491 24.9627 185.781 25.112 184.96 25.112Z" fill="#FFCA00"/>
<path d="M190.278 20.536C190.278 19.64 190.454 18.8453 190.806 18.152C191.169 17.4587 191.654 16.9253 192.262 16.552C192.881 16.1787 193.569 15.992 194.326 15.992C194.987 15.992 195.563 16.1253 196.054 16.392C196.555 16.6587 196.955 16.9947 197.254 17.4V16.136H199.51V25H197.254V23.704C196.966 24.12 196.566 24.4667 196.054 24.744C195.553 25.0107 194.971 25.144 194.31 25.144C193.563 25.144 192.881 24.952 192.262 24.568C191.654 24.184 191.169 23.6453 190.806 22.952C190.454 22.248 190.278 21.4427 190.278 20.536ZM197.254 20.568C197.254 20.024 197.147 19.56 196.934 19.176C196.721 18.7813 196.433 18.4827 196.07 18.28C195.707 18.0667 195.318 17.96 194.902 17.96C194.486 17.96 194.102 18.0613 193.75 18.264C193.398 18.4667 193.11 18.7653 192.886 19.16C192.673 19.544 192.566 20.0027 192.566 20.536C192.566 21.0693 192.673 21.5387 192.886 21.944C193.11 22.3387 193.398 22.6427 193.75 22.856C194.113 23.0693 194.497 23.176 194.902 23.176C195.318 23.176 195.707 23.0747 196.07 22.872C196.433 22.6587 196.721 22.36 196.934 21.976C197.147 21.5813 197.254 21.112 197.254 20.568Z" fill="#FFCA00"/>
<path d="M206.61 16.008C207.666 16.008 208.519 16.344 209.17 17.016C209.82 17.6773 210.146 18.6053 210.146 19.8V25H207.906V20.104C207.906 19.4 207.73 18.8613 207.378 18.488C207.026 18.104 206.546 17.912 205.938 17.912C205.319 17.912 204.828 18.104 204.466 18.488C204.114 18.8613 203.938 19.4 203.938 20.104V25H201.698V16.136H203.938V17.24C204.236 16.856 204.615 16.5573 205.074 16.344C205.543 16.12 206.055 16.008 206.61 16.008Z" fill="#FFCA00"/>
<path d="M211.7 20.536C211.7 19.64 211.876 18.8453 212.228 18.152C212.59 17.4587 213.081 16.9253 213.7 16.552C214.318 16.1787 215.006 15.992 215.764 15.992C216.34 15.992 216.889 16.12 217.412 16.376C217.934 16.6213 218.35 16.952 218.66 17.368V13.16H220.932V25H218.66V23.688C218.382 24.1253 217.993 24.4773 217.492 24.744C216.99 25.0107 216.409 25.144 215.748 25.144C215.001 25.144 214.318 24.952 213.7 24.568C213.081 24.184 212.59 23.6453 212.228 22.952C211.876 22.248 211.7 21.4427 211.7 20.536ZM218.676 20.568C218.676 20.024 218.569 19.56 218.356 19.176C218.142 18.7813 217.854 18.4827 217.492 18.28C217.129 18.0667 216.74 17.96 216.324 17.96C215.908 17.96 215.524 18.0613 215.172 18.264C214.82 18.4667 214.532 18.7653 214.308 19.16C214.094 19.544 213.988 20.0027 213.988 20.536C213.988 21.0693 214.094 21.5387 214.308 21.944C214.532 22.3387 214.82 22.6427 215.172 22.856C215.534 23.0693 215.918 23.176 216.324 23.176C216.74 23.176 217.129 23.0747 217.492 22.872C217.854 22.6587 218.142 22.36 218.356 21.976C218.569 21.5813 218.676 21.112 218.676 20.568Z" fill="#FFCA00"/>
<path d="M225.36 17.432C225.648 17.0053 226.042 16.6587 226.544 16.392C227.056 16.1253 227.637 15.992 228.288 15.992C229.045 15.992 229.728 16.1787 230.336 16.552C230.954 16.9253 231.44 17.4587 231.792 18.152C232.154 18.8347 232.336 19.6293 232.336 20.536C232.336 21.4427 232.154 22.248 231.792 22.952C231.44 23.6453 230.954 24.184 230.336 24.568C229.728 24.952 229.045 25.144 228.288 25.144C227.626 25.144 227.045 25.016 226.544 24.76C226.053 24.4933 225.658 24.152 225.36 23.736V25H223.12V13.16H225.36V17.432ZM230.048 20.536C230.048 20.0027 229.936 19.544 229.712 19.16C229.498 18.7653 229.21 18.4667 228.848 18.264C228.496 18.0613 228.112 17.96 227.696 17.96C227.29 17.96 226.906 18.0667 226.544 18.28C226.192 18.4827 225.904 18.7813 225.68 19.176C225.466 19.5707 225.36 20.0347 225.36 20.568C225.36 21.1013 225.466 21.5653 225.68 21.96C225.904 22.3547 226.192 22.6587 226.544 22.872C226.906 23.0747 227.29 23.176 227.696 23.176C228.112 23.176 228.496 23.0693 228.848 22.856C229.21 22.6427 229.498 22.3387 229.712 21.944C229.936 21.5493 230.048 21.08 230.048 20.536Z" fill="#FFCA00"/>
<path d="M237.899 25.144C237.046 25.144 236.278 24.9573 235.595 24.584C234.913 24.2 234.374 23.6613 233.979 22.968C233.595 22.2747 233.403 21.4747 233.403 20.568C233.403 19.6613 233.601 18.8613 233.995 18.168C234.401 17.4747 234.95 16.9413 235.643 16.568C236.337 16.184 237.11 15.992 237.963 15.992C238.817 15.992 239.59 16.184 240.283 16.568C240.977 16.9413 241.521 17.4747 241.915 18.168C242.321 18.8613 242.523 19.6613 242.523 20.568C242.523 21.4747 242.315 22.2747 241.899 22.968C241.494 23.6613 240.939 24.2 240.235 24.584C239.542 24.9573 238.763 25.144 237.899 25.144ZM237.899 23.192C238.305 23.192 238.683 23.096 239.035 22.904C239.398 22.7013 239.686 22.4027 239.899 22.008C240.113 21.6133 240.219 21.1333 240.219 20.568C240.219 19.7253 239.995 19.08 239.547 18.632C239.11 18.1733 238.571 17.944 237.931 17.944C237.291 17.944 236.753 18.1733 236.315 18.632C235.889 19.08 235.675 19.7253 235.675 20.568C235.675 21.4107 235.883 22.0613 236.299 22.52C236.726 22.968 237.259 23.192 237.899 23.192Z" fill="#FFCA00"/>
<path d="M249.062 25L247.238 22.248L245.622 25H243.222L246.118 20.552L243.19 16.136H245.718L247.526 18.872L249.158 16.136H251.558L248.646 20.552L251.59 25H249.062Z" fill="#FFCA00"/>
</svg>
